<svg preserveAspectRatio="none" overflow="visible" style="display: block;" width="174.539" height="219.257" viewBox="0 0 174.539 219.257" fill="none" xmlns="http://www.w3.org/2000/svg">
<g id="body">
<path id="Vector 1989" d="M77.8533 176.753C77.45 175.409 69.1724 164.096 65.084 158.607L81.8857 133.909C96.3351 160.287 126.41 176.753 111.625 190.866C96.8391 204.98 77.8533 205.484 71.4687 197.419C65.084 189.354 78.3573 178.433 77.8533 176.753Z" fill="#C2E4AE" stroke="#55815E" stroke-width="5.04049" stroke-linecap="round" stroke-linejoin="round"/>
<path id="Vector 1988" d="M8.96652 31.2511C-6.08775 11.2235 8.7425 3.75238 18.0394 2.52026C31.3127 13.5533 59.0018 36.6276 63.5719 40.66C69.2844 45.7005 111.81 63.2688 128.762 72.5831C144.052 80.9839 167.07 82.6641 171.438 106.522C174.933 125.609 161.917 126.124 154.973 123.996C154.469 125.788 151.579 129.305 144.052 129.037C136.525 128.768 130.722 113.915 128.762 106.522C124.864 102.893 108.656 96.1614 101.04 93.2491C98.5193 92.7451 94.6213 94.6941 99.1913 106.522C103.761 118.351 101.096 128.701 99.1913 132.397C88.3039 147.72 75.501 165.216 70.4605 172.049C56.8848 206.324 50.0185 215.565 48.2824 215.901C32.9929 218.253 3.42196 216.405 4.93411 200.276C6.14383 187.372 24.592 180.45 33.6649 178.601C43.3427 162.472 48.5624 145.222 49.9625 138.614C26.8435 117.511 35.7371 77.5116 43.0738 60.1499C37.9774 58.8618 24.0208 51.2786 8.96652 31.2511Z" fill="#C2E4AE" stroke="#55815E" stroke-width="5.04049" stroke-linecap="round" stroke-linejoin="round"/>
</g>
</svg>
